<svg xmlns="http://www.w3.org/2000/svg"
     width="400"
     height="400"
     viewBox="100 100 220 220">

    <defs>
        <linearGradient id="alphaGradient"
                        x1="120"
                        y1="150"
                        x2="310"
                        y2="310"
                        gradientUnits="userSpaceOnUse">
            <stop offset="0%" stop-color="#8B1EFF"/>
            <stop offset="45%" stop-color="#5B2DFF"/>
            <stop offset="100%" stop-color="#0F6DFF"/>
        </linearGradient>
    </defs>

    <!-- Alpha -->
    <path fill="url(#alphaGradient)"
          d="m239.84 120.88h31.498l-19.084 85.787q-5.5604 24.458-7.5968 30.016 7.4117 34.093 21.493 34.093 16.676 0 17.232-22.975h6.6701q-.5282 21.493-7.9671 34.834-7.2262 13.155-19.084 13.155-9.8203 0-14.637-7.9673-4.8147-7.9673-10.376-32.61-19.27 40.578-62.997 40.578-29.831 0-47.433-23.161-17.602-23.346-17.602-66.702 0-42.616 19.27-66.332 19.269-23.716 46.321-23.716 19.084 0 31.313 13.526 12.229 13.526 21.679 44.098zm-16.305 72.632q-8.7082-29.831-19.455-46.507-10.746-16.861-25.755-16.861-33.907 0-33.907 79.302 0 75.226 32.425 75.226 28.163 0 41.689-66.332z"/>

    <!-- Three dots -->
    <circle cx="170" cy="196" r="5.6" fill="#FFFFFF"/>
    <circle cx="190" cy="196" r="5.6" fill="#FFFFFF"/>
    <circle cx="210" cy="196" r="5.6" fill="#FFFFFF"/>

    <!-- Prompt -->
    <text x="201"
          y="228"
          text-anchor="middle"
          dominant-baseline="middle"
          font-family="Poppins, Arial, sans-serif"
          font-size="50"
          font-weight="700"
          fill="#FFFFFF">
        Prompt
    </text>

</svg>